<?xml version="1.0" encoding="UTF-8"?>
<svg width="48px" height="48px" viewBox="0 0 48 48" version="1.1" xmlns="http://www.w3.org/2000/svg" xmlns:xlink="http://www.w3.org/1999/xlink">
    <title>全局/疑问icon</title>
    <g id="全局/疑问icon" stroke="none" stroke-width="1" fill="none" fill-rule="evenodd">
        <g id="Group-12">
            <rect id="#" x="0" y="0" width="48" height="48"></rect>
            <g id="编组" opacity="0.6" transform="translate(6.000000, 6.000000)">
                <circle id="椭圆形" stroke="#D3A65E" stroke-width="3" opacity="0.872079397" cx="18" cy="18" r="16.5"></circle>
                <path d="M19.316,23.484 L19.316,23.008 C19.316,22.336 19.456,21.72 19.764,21.16 C20.016,20.656 20.408,20.152 20.94,19.704 C22.256,18.556 23.04,17.828 23.292,17.52 C23.992,16.624 24.356,15.476 24.356,14.104 C24.356,12.424 23.796,11.08 22.676,10.1 C21.556,9.092 20.1,8.616 18.308,8.616 C16.236,8.616 14.612,9.204 13.436,10.408 C12.26,11.584 11.672,13.18 11.672,15.224 L14.612,15.224 C14.612,13.992 14.864,13.04 15.368,12.368 C15.928,11.556 16.852,11.164 18.112,11.164 C19.12,11.164 19.932,11.444 20.492,12.004 C21.024,12.564 21.304,13.32 21.304,14.3 C21.304,15.028 21.024,15.7 20.52,16.344 L20.044,16.876 C18.308,18.416 17.244,19.564 16.88,20.348 C16.488,21.076 16.32,21.972 16.32,23.008 L16.32,23.484 L19.316,23.484 Z M17.804,29 C18.364,29 18.868,28.804 19.26,28.44 C19.652,28.048 19.876,27.572 19.876,26.984 C19.876,26.396 19.68,25.92 19.288,25.556 C18.896,25.164 18.392,24.996 17.804,24.996 C17.244,24.996 16.74,25.164 16.348,25.556 C15.956,25.92 15.76,26.396 15.76,26.984 C15.76,27.544 15.956,28.02 16.348,28.412 C16.74,28.804 17.244,29 17.804,29 Z" id="？" fill="#D3A65E" fill-rule="nonzero" opacity="0.872079397"></path>
            </g>
        </g>
    </g>
</svg>