<?xml version="1.0" encoding="UTF-8"?>
<svg width="48px" height="48px" viewBox="0 0 48 48" version="1.1" xmlns="http://www.w3.org/2000/svg" xmlns:xlink="http://www.w3.org/1999/xlink">
    <title>Tab/分类icon-灰色</title>
    <defs>
        <linearGradient x1="50%" y1="0%" x2="50%" y2="100%" id="linearGradient-1">
            <stop stop-color="#999999" offset="0%"></stop>
            <stop stop-color="#FFFFFF" offset="100%"></stop>
        </linearGradient>
    </defs>
    <g id="Tab/分类icon-灰色" stroke="none" stroke-width="1" fill="none" fill-rule="evenodd">
        <g id="Tab/商城icon-灰色">
            <rect id="蒙版" fill="#D8D8D8" opacity="0" x="0" y="0" width="48" height="48" rx="12"></rect>
            <g id="编组-3" transform="translate(7.000000, 7.000000)">
                <polygon id="路径-2" fill="url(#linearGradient-1)" opacity="0.5" points="1 1 1 12 13 12 13 1"></polygon>
                <path d="M4,0 L10,0 C12.209139,-8.49901461e-16 14,1.790861 14,4 L14,12 C14,13.1045695 13.1045695,14 12,14 L4,14 C1.790861,14 -1.73547709e-16,12.209139 0,10 L0,4 C-7.1463071e-16,1.790861 1.790861,-3.82769592e-17 4,0 Z" id="矩形" stroke="#808080" stroke-width="4"></path>
                <path d="M4,20 L12,20 C13.1045695,20 14,20.8954305 14,22 L14,30 C14,32.209139 12.209139,34 10,34 L4,34 C1.790861,34 -1.73547709e-16,32.209139 0,30 L0,24 C-7.1463071e-16,21.790861 1.790861,20 4,20 Z" id="矩形备份" stroke="#808080" stroke-width="4"></path>
                <path d="M24,0 L30,0 C32.209139,-8.49901461e-16 34,1.790861 34,4 L34,10 C34,12.209139 32.209139,14 30,14 L22,14 C20.8954305,14 20,13.1045695 20,12 L20,4 C20,1.790861 21.790861,-3.82769592e-17 24,0 Z" id="矩形" stroke="#808080" stroke-width="4"></path>
                <path d="M22,20 L30,20 C32.209139,20 34,21.790861 34,24 L34,30 C34,32.209139 32.209139,34 30,34 L24,34 C21.790861,34 20,32.209139 20,30 L20,22 C20,20.8954305 20.8954305,20 22,20 Z" id="矩形备份-2" stroke="#999999" stroke-width="4"></path>
            </g>
        </g>
    </g>
</svg>