<?xml version="1.0" encoding="UTF-8"?>
<svg width="48px" height="48px" viewBox="0 0 48 48" version="1.1" xmlns="http://www.w3.org/2000/svg" xmlns:xlink="http://www.w3.org/1999/xlink">
    <title>Tab/分类icon-点亮</title>
    <defs>
        <linearGradient x1="50%" y1="0%" x2="50%" y2="100%" id="linearGradient-1">
            <stop stop-color="#D3A65E" offset="0.038243007%"></stop>
            <stop stop-color="#FFFFFF" offset="100%"></stop>
        </linearGradient>
    </defs>
    <g id="Tab/分类icon-点亮" stroke="none" stroke-width="1" fill="none" fill-rule="evenodd">
        <g id="Tab/商城icon-灰色">
            <rect id="蒙版" fill="#D8D8D8" opacity="0" x="0" y="0" width="48" height="48" rx="12"></rect>
            <g id="编组-3" transform="translate(7.000000, 7.000000)">
                <polygon id="路径-2" fill="url(#linearGradient-1)" opacity="0.3" points="1 1 1 12 13 12 13 1"></polygon>
                <path d="M10,-2 L4,-2 C0.686291501,-2 -2,0.686291501 -2,4 L-2,10 C-2,13.3137085 0.686291501,16 4,16 L12,16 C14.209139,16 16,14.209139 16,12 L16,4 C16,0.686291501 13.3137085,-2 10,-2 Z M4,2 L10,2 C11.1045695,2 12,2.8954305 12,4 L12,12 L4,12 C2.8954305,12 2,11.1045695 2,10 L2,4 C2,2.8954305 2.8954305,2 4,2 Z" id="矩形" fill="#D3A65E" fill-rule="nonzero"></path>
                <path d="M12,18 L4,18 C0.686291501,18 -2,20.6862915 -2,24 L-2,30 C-2,33.3137085 0.686291501,36 4,36 L10,36 C13.3137085,36 16,33.3137085 16,30 L16,22 C16,19.790861 14.209139,18 12,18 Z M4,22 L12,22 L12,30 C12,31.1045695 11.1045695,32 10,32 L4,32 C2.8954305,32 2,31.1045695 2,30 L2,24 C2,22.8954305 2.8954305,22 4,22 Z" id="矩形备份" fill="#D3A65E" fill-rule="nonzero"></path>
                <path d="M30,-2 L24,-2 C20.6862915,-2 18,0.686291501 18,4 L18,12 C18,14.209139 19.790861,16 22,16 L30,16 C33.3137085,16 36,13.3137085 36,10 L36,4 C36,0.686291501 33.3137085,-2 30,-2 Z M24,2 L30,2 C31.1045695,2 32,2.8954305 32,4 L32,10 C32,11.1045695 31.1045695,12 30,12 L22,12 L22,4 C22,2.8954305 22.8954305,2 24,2 Z" id="矩形" fill="#D3A65E" fill-rule="nonzero"></path>
                <path d="M30,18 L22,18 C19.790861,18 18,19.790861 18,22 L18,30 C18,33.3137085 20.6862915,36 24,36 L30,36 C33.3137085,36 36,33.3137085 36,30 L36,24 C36,20.6862915 33.3137085,18 30,18 Z M22,22 L30,22 C31.1045695,22 32,22.8954305 32,24 L32,30 C32,31.1045695 31.1045695,32 30,32 L24,32 C22.8954305,32 22,31.1045695 22,30 L22,22 Z" id="矩形备份-2" fill="#D3A65E" fill-rule="nonzero"></path>
            </g>
        </g>
    </g>
</svg>